<?xml version="1.0" encoding="utf-8"?>
<!-- Generator: Adobe Illustrator 16.0.0, SVG Export Plug-In . SVG Version: 6.00 Build 0)  -->
<svg version="1.2" baseProfile="tiny" id="Layer_1" xmlns="http://www.w3.org/2000/svg" xmlns:xlink="http://www.w3.org/1999/xlink"
	 x="0px" y="0px" width="1000px" height="1000px" viewBox="0 0 1000 1000" xml:space="preserve">
<g>
	<path d="M105.315,541.242l28.922-41.389l-28.922-41.389l-28.922,41.389L105.315,541.242z"/>
	<path d="M58.442,499.356L95.84,445.5l-17.453-25.432l-55.351,79.786l55.351,79.785l18.449-25.931L58.442,499.356z M320.236,538.25
		c-0.999-1.496-0.999-3.49-0.999-6.482c-2.992,5.983-10.471,8.478-16.455,8.478c-15.46,0-25.931-12.966-25.931-27.427
		c0-14.96,10.471-27.426,25.931-27.426c5.983,0,11.967,1.995,15.955,6.482v-4.487h18.452v37.898c0,5.486,0.499,9.475,2.992,12.466
		h-19.945V538.25z M308.767,499.356c-5.486,0-9.474,4.488-9.474,13.962s3.988,13.961,9.474,13.961c5.484,0,9.972-4.486,9.972-13.961
		S314.251,499.356,308.767,499.356z M209.533,506.336c7.481,0,9.974,1.995,9.974,8.479c0,5.982-2.992,8.475-14.461,8.475H192.08
		v-16.953H209.533z M206.542,476.914c7.979,0,9.974,2.994,9.974,6.982c0,4.488-1.995,7.479-9.974,7.479H192.08v-14.461H206.542z
		 M170.14,538.25h39.893c25.931,0,31.415-12.466,31.415-21.94c0-10.97-6.482-17.453-17.453-18.949
		c9.974-2.495,13.964-7.481,13.964-17.453c0-11.469-8.977-18.451-27.926-18.451h-40.39v76.793H170.14z M248.927,538.25v-76.294
		h20.446v76.794h-20.446V538.25z M382.067,505.837c-0.497-2.493-0.997-3.988-2.492-5.484c-1.496-1.496-2.992-1.995-5.484-1.995
		c-5.486,0-8.977,4.986-8.977,13.962c0,12.966,4.487,15.46,8.977,15.46c5.983,0,7.479-3.491,7.977-7.98h20.447
		c-0.5,7.48-3.99,12.965-9.477,15.959c-5.484,2.992-12.466,4.487-19.446,4.487c-16.954,0-30.418-9.974-30.418-27.926
		c0-12.466,10.471-26.927,30.917-26.927c14.459,0,26.428,7.481,28.92,19.948h-20.944V505.837z M410.491,538.25v-76.294h20.446v40.89
		l13.463-14.961h24.435l-16.956,17.456l18.951,32.91h-22.939l-10.471-19.945l-6.483,6.48v13.465H410.491z"/>
	<g>
		<path d="M655.83,538.25c-0.998-1.496-0.998-3.49-0.998-6.482c-2.992,5.983-10.471,8.478-16.455,8.478
			c-15.457,0-25.931-12.466-25.931-27.427c0-14.461,10.474-27.426,25.931-27.426c5.984,0,11.967,1.995,15.957,6.482v-4.487h18.449
			v37.898c0,5.486,0.5,9.475,2.992,12.466H655.83V538.25z M643.863,499.356c-5.486,0-9.477,4.488-9.477,13.962
			s3.99,13.961,9.477,13.961c5.484,0,9.972-4.486,9.972-13.961S649.847,499.356,643.863,499.356z M801.438,513.318
			c0-10.473,3.49-15.46,9.972-15.46c6.482,0,10.473,4.987,10.473,15.46c0,10.471-3.491,15.457-10.473,15.457
			C804.928,528.775,801.438,523.789,801.438,513.318z M843.822,513.318c0-15.46-10.471-27.427-31.914-27.427
			c-21.441,0-31.914,11.967-31.914,27.427c0,15.457,10.473,27.424,31.914,27.424C832.852,540.742,843.822,528.276,843.822,513.318z
			 M520.694,477.414h12.466c10.971,0,20.944,4.987,20.944,22.44c0,13.962-5.983,22.439-20.944,22.439h-12.466V477.414z
			 M498.754,538.25h32.91c29.42,0,45.379-11.969,45.379-38.396c0-26.428-15.959-38.397-45.379-38.397h-32.91V538.25z
			 M584.023,488.883h20.444v49.367h-20.444V488.883z M584.023,461.956h20.444v18.45h-20.444V461.956z M683.754,538.25v-50.366
			h19.947v7.481c3.489-7.481,10.971-9.475,15.957-9.475c6.98,0,12.467,2.992,15.458,8.975c2.991-5.983,9.972-8.975,15.957-8.975
			c10.969,0,20.942,4.488,20.942,21.441v30.918H751.57v-30.918c0-5.483-2.991-6.979-6.482-6.979c-3.489,0-6.48,1.496-6.48,6.979
			v30.918H718.16v-30.918c0-5.483-2.991-6.979-6.482-6.979c-3.488,0-6.48,1.496-6.48,6.979v30.918H683.754L683.754,538.25z
			 M851.302,538.25v-50.366h20.444v8.478c2.993-8.478,10.473-10.97,17.952-10.97c8.478,0,17.952,5.983,18.451,17.952v34.407h-20.446
			v-29.919c0-5.486-2.492-7.479-6.98-7.479c-4.986,0-8.478,4.487-8.478,8.976v28.922H851.302z M956.519,461.956h20.444v76.794
			h-19.448v-5.986c-2.991,5.486-9.974,7.979-17.453,7.979c-11.469,0-24.932-9.971-24.932-26.927
			c0-11.967,5.486-27.924,24.435-27.924c5.983,0,12.466,1.496,16.954,5.983V461.956L956.519,461.956z M946.045,499.356
			c-5.483,0-9.472,4.488-9.472,13.962s3.988,13.961,9.472,13.961c5.486,0,9.974-4.486,9.974-13.961S952.03,499.356,946.045,499.356z
			"/>
	</g>
	<g>
		<path d="M936.573,472.427c-4.987,0-9.475-4.488-9.475-9.475c0-5.484,4.487-9.474,9.475-9.474c4.984,0,9.472,4.487,9.472,9.474
			S941.558,472.427,936.573,472.427z M936.573,453.977c-4.987,0-8.479,3.988-8.479,8.478c0,4.987,3.491,8.476,8.479,8.476
			c4.984,0,8.476-3.988,8.476-8.476C945.049,457.965,941.558,453.977,936.573,453.977z M939.564,467.939l-3.491-4.487h-1.495v4.487
			h-0.999v-10.471h3.491c2.494,0,3.99,0.997,3.99,2.992c0,1.496-1.496,2.992-2.992,2.992l3.489,4.987h-1.993V467.939z
			 M936.073,458.465h-1.995v4.487h1.995c1.995,0,2.992-0.497,2.992-2.492S937.569,458.465,936.073,458.465z"/>
	</g>
</g>
</svg>
